<?xml version="1.0" encoding="utf-8"?>
<svg xmlns="http://www.w3.org/2000/svg" viewBox="0 0 4500 4500" width="18" height="18">
  <g>
    <path fill="#E6E7E8" d="M2249.993,3235.272c-424.27,0-785.631-270.664-922.285-649.502h-0.014l-538.751,425.702
      c274.173,529.854,825.544,891.767,1461.05,891.767c411.078,0,786.942-151.423,1075.354-401.772l-553.84-416.904
      C2620.447,3180.043,2441.635,3235.272,2249.993,3235.272z"/>
    <path fill="#E6E7E8" d="M2249.993,1264.728c240.173,0,460.181,86.723,630.681,230.707l473.917-470.899
      c-292.023-265.831-679.49-427.775-1104.598-427.775c-641.502,0-1197.266,368.764-1468.72,906.8l539.42,430.717
      C1451.699,1544.976,1818.276,1264.728,2249.993,1264.728z"/>
    <path fill="#E6E7E8" d="M1269.261,2250c0-110.429,18.088-216.613,51.432-315.721l-539.42-430.717
      C668.132,1727.796,604.386,1981.409,604.386,2250c0,274.601,66.647,533.567,184.558,761.472l538.751-425.702
      C1289.873,2480.987,1269.261,2367.91,1269.261,2250z"/>
    <path fill="#3871.377,1965.76h-682.085h-963.007v619.66h946.147
      c-74.917,207.87-217.456,383.195-400.925,499.144l553.84,416.904c268.999-233.481,461.909-553.027,536.38-916.047
      c22.216-108.313,33.888-220.493,33.888-335.419C3895.614,2153.077,3887.317,2058.101,3871.377,1965.76z"/>
  </g>
  <g>
    <path fill="#34A853" d="M2249.993,3179.736c-400.581,0-741.765-255.408-870.789-612.892h-0.013l-508.669,401.707
      c258.864,499.989,779.45,841.502,1379.472,841.502c388.125,0,743.003-142.888,1015.311-379.126l-522.916-393.404
      C2599.763,3127.621,2430.935,3179.736,2249.993,3179.736z"/>
    <path fill="#EA4335" d="M2249.993,1320.264c226.763,0,434.486,81.835,595.467,217.703l447.455-444.356
      c-275.718-250.847-641.551-403.664-1042.922-403.664c-605.684,0-1130.417,347.978-1386.714,855.688l509.302,406.44
      C1496.272,1584.715,1842.381,1320.264,2249.993,1320.264z"/>
    <path fill="#FFB902" d="M1324.021,2250c0-104.205,17.078-204.403,48.56-297.926l-509.302-406.44
      C756.456,1757.23,696.269,1996.548,696.269,2250c0,259.123,62.925,503.492,174.253,718.551l508.669-401.707
      C1343.482,2467.968,1324.021,2361.264,1324.021,2250z"/>
    <path fill="#4285F4" d="M3780.847,1981.781h-644h-909.237v584.732h893.318c-70.733,196.154-205.314,361.596-378.54,471.009
      l522.916,393.404c253.979-220.321,436.119-521.855,506.431-864.414c20.975-102.208,31.996-208.065,31.996-316.513
      C3803.731,2158.54,3795.896,2068.918,3780.847,1981.781z"/>
  </g>
</svg>